<svg version="1.0" xmlns="http://www.w3.org/2000/svg"
 width="24px" height="24px" viewBox="0 0 733.000000 917.000000"
 preserveAspectRatio="xMidYMid meet">

<g transform="translate(0.000000,917.000000) scale(0.100000,-0.100000)"
fill="currentColor" stroke="none">
<path d="M1901 9105 c-21 -19 -49 -59 -62 -88 -21 -47 -24 -69 -27 -227 -2
-108 1 -196 8 -230 30 -147 102 -338 169 -448 71 -118 85 -159 72 -204 -11
-36 -15 -39 -44 -36 -30 3 -32 6 -38 51 -3 27 -12 53 -20 58 -23 14 -372 129
-393 129 -11 0 -49 9 -85 19 -64 19 -85 24 -261 55 -47 8 -98 18 -115 21 -16
4 -91 11 -165 16 -74 5 -184 14 -245 19 -180 16 -384 31 -488 36 l-98 5 -40
-39 c-38 -38 -39 -42 -39 -106 0 -53 8 -87 41 -173 48 -129 105 -238 157 -301
82 -100 261 -277 330 -326 260 -182 713 -416 1017 -523 39 -14 75 -29 81 -34
7 -5 56 -25 111 -43 54 -18 114 -41 133 -51 19 -10 55 -24 80 -31 25 -7 95
-31 155 -54 61 -23 139 -52 175 -65 36 -13 108 -40 160 -60 52 -20 122 -45
155 -54 33 -10 78 -27 100 -38 22 -11 78 -33 125 -48 98 -32 151 -57 170 -80
12 -14 9 -32 -19 -123 -18 -59 -42 -129 -52 -157 -66 -175 -116 -344 -132
-440 -23 -144 -10 -778 19 -947 5 -33 2 -41 -24 -65 -55 -51 -119 -102 -158
-124 -22 -13 -55 -37 -74 -53 -19 -17 -66 -49 -104 -71 -39 -22 -95 -63 -125
-90 -31 -28 -76 -64 -101 -80 -54 -35 -118 -88 -209 -170 -36 -34 -82 -73
-101 -87 -52 -39 -242 -227 -275 -273 -16 -22 -52 -65 -81 -95 -28 -31 -59
-71 -69 -90 -9 -19 -32 -51 -50 -70 -18 -19 -49 -66 -69 -105 -21 -38 -53 -99
-72 -134 -40 -73 -98 -223 -131 -336 -31 -108 -37 -184 -37 -500 0 -345 4
-395 55 -629 12 -56 11 -60 -7 -70 -10 -6 -61 -51 -111 -100 -115 -111 -133
-150 -143 -311 -5 -83 -14 -126 -34 -178 -21 -56 -26 -84 -26 -161 0 -59 6
-110 15 -137 43 -122 175 -288 267 -335 25 -13 56 -38 69 -56 52 -76 135 -150
213 -190 l78 -39 142 3 c166 4 224 22 308 94 28 24 57 44 64 44 7 0 50 -18 95
-40 46 -22 95 -40 110 -40 14 0 46 -7 70 -16 90 -34 213 -37 1219 -38 1172 0
1141 -2 1339 93 97 46 203 190 218 297 7 54 31 74 88 74 55 0 193 50 257 93
109 73 176 167 218 305 38 125 13 209 -94 320 -73 77 -155 115 -371 173 -74
20 -138 29 -335 47 -87 9 -120 24 -120 55 0 13 24 72 54 132 57 116 110 271
144 420 37 163 53 178 100 99 74 -124 267 -344 333 -379 56 -30 117 -45 181
-45 62 0 69 2 101 32 24 24 41 56 60 113 24 71 27 96 27 217 0 145 -7 183 -57
320 -25 70 -27 80 -14 110 28 69 44 157 48 268 5 138 -10 205 -82 353 -43 87
-58 108 -144 190 -54 51 -100 97 -104 104 -4 6 9 56 28 110 74 201 85 265 85
473 0 165 -3 199 -24 281 -32 125 -76 235 -123 312 -65 104 -96 177 -85 202
11 24 48 56 293 260 129 107 269 248 332 334 l61 83 52 -5 c117 -12 190 -80
160 -150 -22 -51 -64 -83 -176 -131 -72 -32 -117 -58 -145 -86 -39 -40 -40
-41 -40 -113 1 -61 6 -81 32 -132 17 -33 48 -79 68 -102 36 -42 37 -43 65 -28
16 8 34 15 39 15 6 0 24 -26 40 -58 l30 -59 53 5 c47 3 58 0 96 -28 34 -24 53
-51 88 -122 61 -126 58 -195 -12 -245 l-26 -19 41 -82 c23 -45 43 -82 46 -82
3 0 122 59 265 130 l260 130 -76 153 c-67 131 -87 161 -145 218 -105 105 -212
148 -364 149 -91 0 -157 -15 -233 -54 l-53 -27 -44 31 c-68 47 -125 132 -125
187 0 65 60 118 185 163 69 24 130 63 157 101 41 55 32 148 -20 211 -26 30
-135 88 -167 88 -21 0 -19 13 9 68 40 81 67 176 101 358 51 275 -28 448 -303
658 -163 124 -166 127 -380 322 -83 76 -203 157 -291 196 -36 16 -86 39 -111
50 -25 11 -114 38 -199 59 -151 38 -157 39 -337 39 -178 0 -189 -1 -317 -34
-167 -44 -190 -52 -314 -115 -124 -62 -148 -64 -169 -16 -7 19 -14 48 -14 65
0 35 -40 200 -72 300 -26 81 -145 323 -202 410 -23 36 -55 85 -71 110 -15 25
-49 69 -74 99 -89 105 -397 407 -470 461 -41 30 -93 71 -115 91 -23 20 -59 46
-81 57 -22 11 -51 32 -65 47 -14 15 -45 38 -70 52 -45 24 -96 58 -200 131 -30
22 -68 46 -85 55 -16 8 -41 27 -55 42 -34 36 -122 85 -154 85 -16 0 -41 -14
-65 -35z"/>
<path d="M5870 4694 c-161 -85 -262 -239 -276 -419 -9 -108 14 -192 96 -356
39 -79 72 -145 74 -147 5 -4 526 256 526 263 0 3 -18 41 -40 85 -39 77 -41 79
-66 70 -38 -15 -86 -3 -128 32 -51 42 -126 192 -126 251 0 43 22 84 60 114 13
10 11 19 -15 73 -16 34 -32 63 -35 65 -3 2 -35 -12 -70 -31z"/>
<path d="M6058 4560 c-43 -33 -40 -62 12 -169 26 -54 56 -101 65 -105 62 -24
125 12 125 72 0 35 -60 163 -93 200 -26 28 -75 29 -109 2z"/>
<path d="M6345 3993 c-302 -151 -551 -276 -552 -277 -8 -7 355 -715 391 -764
88 -119 231 -212 378 -247 132 -31 204 -17 398 79 115 56 156 82 200 126 61
61 109 148 136 250 25 95 22 254 -6 345 -29 90 -366 765 -383 764 -6 0 -259
-124 -562 -276z"/>
</g>
</svg>
